<svg xmlns="http://www.w3.org/2000/svg" xmlns:xlink="http://www.w3.org/1999/xlink" viewBox="0 0 24 24"><defs><style>.cls-1{isolation:isolate;}.cls-2,.cls-4{fill:none;}.cls-3{fill:url(#未命名漸層_8);}.cls-4{stroke:#653d82;stroke-miterlimit:10;stroke-width:0.5px;opacity:0.46;mix-blend-mode:multiply;}</style><linearGradient id="未命名漸層_8" x1="2" y1="12" x2="21" y2="12" gradientUnits="userSpaceOnUse"><stop offset="0" stop-color="#8b38ac"/><stop offset="1" stop-color="#653d82"/></linearGradient></defs><g class="cls-1"><g id="圖層_1" data-name="圖層 1"><rect class="cls-2" width="24" height="24"/><path class="cls-3" d="M18.21,9.21A11.29,11.29,0,0,0,13,17h2v2H9V17h2A9.06,9.06,0,0,0,2,9V7a11.06,11.06,0,0,1,10,6.3,14.33,14.33,0,0,1,4.78-5.52L14,5h7v7Z"/><path class="cls-4" d="M18.21,9.21A11.29,11.29,0,0,0,13,17h2v2H9V17h2A9.06,9.06,0,0,0,2,9V7a11.06,11.06,0,0,1,10,6.3,14.33,14.33,0,0,1,4.78-5.52L14,5h7v7Z"/></g></g></svg>