<?xml version="1.0" encoding="utf-8"?>
<!-- Generator: Adobe Illustrator 25.0.1, SVG Export Plug-In . SVG Version: 6.00 Build 0)  -->
<svg version="1.1" id="圖層_1" xmlns="http://www.w3.org/2000/svg" xmlns:xlink="http://www.w3.org/1999/xlink" x="0px" y="0px"
	 viewBox="0 0 24 24" style="enable-background:new 0 0 24 24;" xml:space="preserve">
<style type="text/css">
	.st0{fill:url(#SVGID_1_);}
	.st1{opacity:0.46;fill:none;stroke:#FFFFFF;stroke-width:0.5;stroke-miterlimit:10;enable-background:new    ;}
</style>
<g>
	<linearGradient id="SVGID_1_" gradientUnits="userSpaceOnUse" x1="2" y1="12" x2="22" y2="12">
		<stop  offset="0" style="stop-color:#887CE6"/>
		<stop  offset="1" style="stop-color:#BC88D1"/>
	</linearGradient>
	<path class="st0" d="M22,18v-2H8V4h2L7,1L4,4h2v2H2v2h4v8c0,1.1,0.9,2,2,2h8v2h-2l3,3l3-3h-2v-2H22z M10,8h6v6h2V8c0-1.1-0.9-2-2-2
		h-6V8z"/>
	<path class="st1" d="M22,18v-2H8V4h2L7,1L4,4h2v2H2v2h4v8c0,1.1,0.9,2,2,2h8v2h-2l3,3l3-3h-2v-2H22z M10,8h6v6h2V8c0-1.1-0.9-2-2-2
		h-6V8z"/>
</g>
</svg>
