<svg xmlns="http://www.w3.org/2000/svg" xmlns:xlink="http://www.w3.org/1999/xlink" viewBox="0 0 24 24"><defs><style>.cls-1{isolation:isolate;}.cls-2,.cls-7{fill:none;}.cls-3{fill:url(#未命名漸層_8);}.cls-4{fill:url(#未命名漸層_8-2);}.cls-5{fill:url(#未命名漸層_8-3);}.cls-6{opacity:0.46;mix-blend-mode:multiply;}.cls-7{stroke:#653d82;stroke-miterlimit:10;stroke-width:0.5px;}</style><linearGradient id="未命名漸層_8" x1="4" y1="12" x2="20" y2="12" gradientUnits="userSpaceOnUse"><stop offset="0" stop-color="#8b38ac"/><stop offset="1" stop-color="#653d82"/></linearGradient><linearGradient id="未命名漸層_8-2" x1="11" y1="6.86" x2="19.28" y2="6.86" xlink:href="#未命名漸層_8"/><linearGradient id="未命名漸層_8-3" x1="17.86" y1="2.57" x2="21" y2="2.57" xlink:href="#未命名漸層_8"/></defs><g class="cls-1"><g id="圖層_1" data-name="圖層 1"><rect class="cls-2" width="24" height="24"/><path class="cls-3" d="M14,13H9V8.05l5.61-5.61A8.17,8.17,0,0,0,12,2a8,8,0,0,0-8,8.2q0,5,8,11.8,8-6.83,8-11.8a8.7,8.7,0,0,0-.45-2.8Z"/><polygon class="cls-4" points="11 11 13.12 11 19.28 4.84 17.16 2.72 11 8.88 11 11"/><path class="cls-5" d="M20.71,2,20,1.29A1,1,0,0,0,19.29,1a1.18,1.18,0,0,0-.71.29L17.86,2,20,4.13l.72-.72A1,1,0,0,0,20.71,2Z"/><g class="cls-6"><path class="cls-7" d="M14,13H9V8.05l5.61-5.61A8.17,8.17,0,0,0,12,2a8,8,0,0,0-8,8.2q0,5,8,11.8,8-6.83,8-11.8a8.7,8.7,0,0,0-.45-2.8Z"/><polygon class="cls-7" points="11 11 13.12 11 19.28 4.84 17.16 2.72 11 8.88 11 11"/><path class="cls-7" d="M20.71,2,20,1.29A1,1,0,0,0,19.29,1a1.18,1.18,0,0,0-.71.29L17.86,2,20,4.13l.72-.72A1,1,0,0,0,20.71,2Z"/></g></g></g></svg>