<?xml version="1.0" encoding="utf-8"?>
<!-- Generator: Adobe Illustrator 25.0.1, SVG Export Plug-In . SVG Version: 6.00 Build 0)  -->
<svg version="1.1" id="圖層_1" xmlns="http://www.w3.org/2000/svg" xmlns:xlink="http://www.w3.org/1999/xlink" x="0px" y="0px"
	 viewBox="0 0 24 24" style="enable-background:new 0 0 24 24;" xml:space="preserve">
<style type="text/css">
	.st0{fill:url(#SVGID_1_);}
	.st1{opacity:0.46;fill:none;stroke:#FFFFFF;stroke-width:0.5;stroke-miterlimit:10;enable-background:new    ;}
</style>
<g>
	<linearGradient id="SVGID_1_" gradientUnits="userSpaceOnUse" x1="2.2494" y1="12" x2="21.7494" y2="12">
		<stop  offset="0" style="stop-color:#887CE6"/>
		<stop  offset="1" style="stop-color:#BC88D1"/>
	</linearGradient>
	<path class="st0" d="M13.6,18.9c-1,1-2.1,2-3.3,3.1c-5.3-4.5-8-8.5-8-11.8c0-5,3.8-8.2,8-8.2c4.2,0,8,3.2,8,8.2l2.1-2.1l1.4,1.4
		L17.2,14l-4.5-4.5l1.4-1.4l2.1,2.1c0-3.6-2.7-6.2-6-6.2c-3.4,0-6,2.6-6,6.2c0,2.3,1.9,5.4,6,9.1c0.6-0.6,1.2-1.2,1.8-1.7
		c-0.2-0.3-0.3-0.7-0.3-1.1c0-1.4,1.1-2.5,2.5-2.5s2.5,1.1,2.5,2.5S15.6,19,14.2,19C14,19,13.8,19,13.6,18.9z"/>
	<path class="st1" d="M13.6,18.9c-1,1-2.1,2-3.3,3.1c-5.3-4.5-8-8.5-8-11.8c0-5,3.8-8.2,8-8.2c4.2,0,8,3.2,8,8.2l2.1-2.1l1.4,1.4
		L17.2,14l-4.5-4.5l1.4-1.4l2.1,2.1c0-3.6-2.7-6.2-6-6.2c-3.4,0-6,2.6-6,6.2c0,2.3,1.9,5.4,6,9.1c0.6-0.6,1.2-1.2,1.8-1.7
		c-0.2-0.3-0.3-0.7-0.3-1.1c0-1.4,1.1-2.5,2.5-2.5s2.5,1.1,2.5,2.5S15.6,19,14.2,19C14,19,13.8,19,13.6,18.9z"/>
</g>
</svg>
