<svg height="59" viewBox="0 0 59 59" width="59" xmlns="http://www.w3.org/2000/svg" xmlns:xlink="http://www.w3.org/1999/xlink"><linearGradient id="a" x1="49.947552%" x2="49.947552%" y1="-.34965%" y2="100.856643%"><stop offset="0" stop-color="#f5fdff"/><stop offset="1" stop-color="#60696b"/></linearGradient><radialGradient id="b" cx="73.435754%" cy="87.178771%" r="93.044693%"><stop offset="0" stop-color="#ebeff0"/><stop offset=".25" stop-color="#e7eced"/><stop offset=".49" stop-color="#dce2e4"/><stop offset=".72" stop-color="#c9d2d5"/><stop offset=".94" stop-color="#aebbc1"/><stop offset="1" stop-color="#a6b4ba"/></radialGradient><g fill="none" fill-rule="evenodd" transform="translate(1.2 1.2)"><g fill-rule="nonzero"><path d="m57.2 28.6c0 15.8-12.8 28.6-28.6 28.6s-28.6-12.8-28.6-28.6 12.8-28.6 28.6-28.6c15.8 0 28.6 12.8 28.6 28.6z" fill="url(#a)"/><path d="m57.2 28.6c0 15.8-12.8 28.6-28.6 28.6s-28.6-12.8-28.6-28.6 12.8-28.6 28.6-28.6c15.8 0 28.6 12.8 28.6 28.6z" fill="#fff" stroke="#e4e4e5"/><path d="m46.4 28.6c0 9.9-8 17.9-17.9 17.9s-17.9-8-17.9-17.9 8-17.9 17.9-17.9c9.9 0 17.9 8 17.9 17.9z" fill="url(#b)"/></g><path d="m28.6 46.4c-9.8 0-17.8-8-17.8-17.8s7.9-17.8 17.8-17.8 17.8 8 17.8 17.8-8 17.8-17.8 17.8z" stroke="#f2f2f2" stroke-width=".5"/><path d="m43.8 28.6c0 8.4-6.8 15.2-15.2 15.2s-15.2-6.8-15.2-15.2 6.8-15.2 15.2-15.2c8.4-.1 15.2 6.8 15.2 15.2z" fill="#aeaeae" fill-rule="nonzero"/></g></svg>