<?xml version="1.0" encoding="utf-8"?>
<!-- Generator: Adobe Illustrator 25.0.1, SVG Export Plug-In . SVG Version: 6.00 Build 0)  -->
<svg version="1.1" id="圖層_1" xmlns="http://www.w3.org/2000/svg" xmlns:xlink="http://www.w3.org/1999/xlink" x="0px" y="0px"
	 viewBox="0 0 24 24" style="enable-background:new 0 0 24 24;" xml:space="preserve">
<style type="text/css">
	.st0{fill:none;}
	.st1{fill:url(#SVGID_1_);}
	.st2{opacity:0.46;fill:none;stroke:#FFFFFF;stroke-width:0.5;stroke-miterlimit:10;enable-background:new    ;}
</style>
<g>
	<g id="圖層_1_1_">
		<path class="st0" d="M-0.2-0.3h24v24h-24L-0.2-0.3z"/>
		
			<linearGradient id="SVGID_1_" gradientUnits="userSpaceOnUse" x1="1.83" y1="14.3346" x2="21.83" y2="14.3346" gradientTransform="matrix(1 0 0 -1 0 26)">
			<stop  offset="0" style="stop-color:#887CE6"/>
			<stop  offset="1" style="stop-color:#BC88D1"/>
		</linearGradient>
		<path class="st1" d="M19.8,6.2h-2.2c0.5-1.6-0.3-3.3-1.9-3.8c-1.3-0.4-2.7,0-3.4,1.2l-0.5,0.7l-0.5-0.7c-0.9-1.4-2.8-1.8-4.2-0.9
			C6,3.4,5.5,4.9,6,6.2H3.8c-1.1,0-2,0.9-2,2v11c0,1.1,0.9,2,2,2h16c1.1,0,2-0.9,2-2v-11C21.8,7.1,20.9,6.2,19.8,6.2z M14.8,4.2
			c0.6,0,1,0.4,1,1s-0.4,1-1,1s-1-0.4-1-1S14.3,4.2,14.8,4.2z M8.8,4.2c0.6,0,1,0.4,1,1s-0.4,1-1,1s-1-0.4-1-1S8.3,4.2,8.8,4.2z
			 M19.8,19.2h-16v-2h16V19.2z M19.8,14.2h-16v-6h5.1L6.8,11l1.6,1.2l2.4-3.2l1-1.4l1,1.4l2.4,3.2l1.6-1.2l-2.1-2.8h5.1V14.2z"/>
		<path class="st2" d="M19.8,6.2h-2.2c0.5-1.6-0.3-3.3-1.9-3.8c-1.3-0.4-2.7,0-3.4,1.2l-0.5,0.7l-0.5-0.7c-0.9-1.4-2.8-1.8-4.2-0.9
			C6,3.4,5.5,4.9,6,6.2H3.8c-1.1,0-2,0.9-2,2v11c0,1.1,0.9,2,2,2h16c1.1,0,2-0.9,2-2v-11C21.8,7.1,20.9,6.2,19.8,6.2z M14.8,4.2
			c0.6,0,1,0.4,1,1s-0.4,1-1,1s-1-0.4-1-1S14.3,4.2,14.8,4.2z M8.8,4.2c0.6,0,1,0.4,1,1s-0.4,1-1,1s-1-0.4-1-1S8.3,4.2,8.8,4.2z
			 M19.8,19.2h-16v-2h16V19.2z M19.8,14.2h-16v-6h5.1L6.8,11l1.6,1.2l2.4-3.2l1-1.4l1,1.4l2.4,3.2l1.6-1.2l-2.1-2.8h5.1V14.2z"/>
	</g>
</g>
</svg>
