<svg xmlns="http://www.w3.org/2000/svg" xmlns:xlink="http://www.w3.org/1999/xlink" viewBox="0 0 24 24"><defs><style>.cls-1{isolation:isolate;}.cls-2,.cls-4{fill:none;}.cls-3{fill:url(#未命名漸層_8);}.cls-4{stroke:#653d82;stroke-miterlimit:10;stroke-width:0.5px;opacity:0.46;mix-blend-mode:multiply;}</style><linearGradient id="未命名漸層_8" x1="5" y1="12" x2="19" y2="12" gradientUnits="userSpaceOnUse"><stop offset="0" stop-color="#8b38ac"/><stop offset="1" stop-color="#653d82"/></linearGradient></defs><g class="cls-1"><g id="圖層_1" data-name="圖層 1"><rect class="cls-2" width="24" height="24"/><path class="cls-3" d="M12,2h0A7,7,0,0,0,5,9a9.1,9.1,0,0,0,1.41,4.84c1,1.54,2.2,2.86,3.16,4.4a17.26,17.26,0,0,1,1.17,2.26c.26.55.47,1.5,1.26,1.5h0c.79,0,1-.95,1.25-1.5a18.57,18.57,0,0,1,1.17-2.26c1-1.53,2.21-2.85,3.16-4.4A9,9,0,0,0,19,9,7,7,0,0,0,12,2Zm0,9.75a2.5,2.5,0,1,1,2.5-2.5A2.5,2.5,0,0,1,12,11.75Z"/><path class="cls-4" d="M12,2h0A7,7,0,0,0,5,9a9.1,9.1,0,0,0,1.41,4.84c1,1.54,2.2,2.86,3.16,4.4a17.26,17.26,0,0,1,1.17,2.26c.26.55.47,1.5,1.26,1.5h0c.79,0,1-.95,1.25-1.5a18.57,18.57,0,0,1,1.17-2.26c1-1.53,2.21-2.85,3.16-4.4A9,9,0,0,0,19,9,7,7,0,0,0,12,2Zm0,9.75a2.5,2.5,0,1,1,2.5-2.5A2.5,2.5,0,0,1,12,11.75Z"/></g></g></svg>