<svg xmlns="http://www.w3.org/2000/svg" xmlns:xlink="http://www.w3.org/1999/xlink" viewBox="0 0 640 640"><defs><style>.cls-1{isolation:isolate;}.cls-2{fill:url(#linear-gradient);}.cls-3{fill:url(#linear-gradient-2);}.cls-4{fill:#2e3545;}.cls-5{fill:url(#linear-gradient-3);}.cls-6{fill:#edf0f7;mix-blend-mode:multiply;}.cls-7{fill:url(#linear-gradient-4);}.cls-8{fill:url(#linear-gradient-5);}.cls-21,.cls-9{fill:#fff;}.cls-14,.cls-18,.cls-9{opacity:0.5;mix-blend-mode:overlay;}.cls-10{fill:url(#linear-gradient-6);}.cls-11{fill:url(#linear-gradient-7);}.cls-12{fill:url(#linear-gradient-8);}.cls-13{fill:url(#linear-gradient-9);}.cls-14{fill:url(#linear-gradient-10);}.cls-15{fill:url(#linear-gradient-11);}.cls-16{fill:url(#linear-gradient-12);}.cls-17{fill:url(#linear-gradient-13);}.cls-18{fill:url(#linear-gradient-14);}.cls-19{fill:url(#linear-gradient-15);}.cls-20{fill:url(#linear-gradient-16);}.cls-21{font-size:104.36px;font-family:MotoyaLMaru-W3-90ms-RKSJ-H, MotoyaLMaru;}</style><linearGradient id="linear-gradient" x1="-273.59" y1="689.51" x2="-244.03" y2="624.38" gradientTransform="translate(699.65 -66.96) rotate(13.65)" gradientUnits="userSpaceOnUse"><stop offset="0" stop-color="#525f7a"/><stop offset="1" stop-color="#2e3545"/></linearGradient><linearGradient id="linear-gradient-2" x1="-283.36" y1="724.68" x2="-242.03" y2="667" gradientTransform="translate(699.65 -66.96) rotate(13.65)" gradientUnits="userSpaceOnUse"><stop offset="0" stop-color="#525f7a"/><stop offset="1" stop-color="#384154"/></linearGradient><linearGradient id="linear-gradient-3" x1="-406.02" y1="436.61" x2="-335.36" y2="578.41" gradientTransform="translate(699.65 -66.96) rotate(13.65)" gradientUnits="userSpaceOnUse"><stop offset="0" stop-color="#e5e9f1"/><stop offset="1" stop-color="#c0cae2"/></linearGradient><linearGradient id="linear-gradient-4" x1="-231.71" y1="509.14" x2="-252.38" y2="681.69" xlink:href="#linear-gradient-3"/><linearGradient id="linear-gradient-5" x1="-312.7" y1="548.61" x2="-322.31" y2="524.82" gradientTransform="translate(699.65 -66.96) rotate(13.65)" gradientUnits="userSpaceOnUse"><stop offset="0" stop-color="#ff8408"/><stop offset="1" stop-color="#ffd80d"/></linearGradient><linearGradient id="linear-gradient-6" x1="-328.42" y1="556.47" x2="-330.82" y2="530.76" gradientTransform="translate(699.65 -66.96) rotate(13.65)" gradientUnits="userSpaceOnUse"><stop offset="0" stop-color="#ffa108"/><stop offset="1" stop-color="#ffd80d"/></linearGradient><linearGradient id="linear-gradient-7" x1="-331.05" y1="618.73" x2="-304.02" y2="441.73" xlink:href="#linear-gradient-5"/><linearGradient id="linear-gradient-8" x1="-352.06" y1="728.01" x2="-360.23" y2="490.56" gradientTransform="translate(699.65 -66.96) rotate(13.65)" gradientUnits="userSpaceOnUse"><stop offset="0" stop-color="#ffa108"/><stop offset="1" stop-color="#ffe040"/></linearGradient><linearGradient id="linear-gradient-9" x1="-366.53" y1="617.99" x2="-355.96" y2="454.08" xlink:href="#linear-gradient-6"/><linearGradient id="linear-gradient-10" x1="-401.75" y1="490.75" x2="-292.55" y2="490.75" gradientTransform="translate(699.65 -66.96) rotate(13.65)" gradientUnits="userSpaceOnUse"><stop offset="0" stop-color="#fff"/><stop offset="1" stop-color="#fff" stop-opacity="0"/></linearGradient><linearGradient id="linear-gradient-11" x1="-93.39" y1="580.94" x2="-74.93" y2="580.94" xlink:href="#linear-gradient-2"/><linearGradient id="linear-gradient-12" x1="-103.29" y1="518.96" x2="-104.37" y2="606.56" xlink:href="#linear-gradient"/><linearGradient id="linear-gradient-13" x1="-146.79" y1="617.48" x2="-149.31" y2="514.02" xlink:href="#linear-gradient-5"/><linearGradient id="linear-gradient-14" x1="-178.43" y1="535.48" x2="-96.01" y2="535.48" xlink:href="#linear-gradient-10"/><linearGradient id="linear-gradient-15" x1="-169.78" y1="617.32" x2="-177.35" y2="499.07" xlink:href="#linear-gradient-8"/><linearGradient id="linear-gradient-16" x1="-173.49" y1="604.83" x2="-178.9" y2="510.38" xlink:href="#linear-gradient-5"/></defs><g class="cls-1"><g id="圖層_1" data-name="圖層 1"><polygon class="cls-2" points="332.3 484.17 270.55 544.25 265.71 544.62 261.79 543.08 258.84 539.66 257.04 534.5 298.61 479.43 332.3 484.17"/><polygon class="cls-3" points="366.44 491.07 358.2 497.61 357.87 497.86 282.18 557.94 277.31 555.75 270.55 544.25 332.3 484.17 359.67 488.03 366.44 491.07"/><polygon class="cls-4" points="282.18 557.94 277.89 558.26 274.4 556.88 269.52 554.69 266.93 551.69 258.84 539.66 261.79 543.08 265.71 544.62 270.55 544.25 277.31 555.75 282.18 557.94"/><polygon class="cls-5" points="287.54 349.07 283.95 364.46 282.46 368.62 258.05 359.93 256.52 359.61 254.89 359.73 253.19 360.23 251.46 361.12 249.76 362.4 248.15 363.99 246.67 365.86 245.38 367.95 244.3 370.21 243.46 372.56 242.92 374.92 242.66 377.23 242.72 379.41 243.06 381.39 243.68 383.15 244.58 384.58 245.74 385.66 269 398.5 263.1 408.04 253.48 420.25 243.01 430.63 231.95 438.91 220.67 444.77 209.53 448.12 199.38 448.74 188.94 446.77 180.12 442.13 172.65 435.01 166.77 425.63 162.64 414.27 160.4 401.29 160.08 387.06 161.77 372.03 165.35 356.67 170.73 341.38 177.74 326.71 186.19 313.06 195.8 300.86 206.3 290.47 217.34 282.19 228.61 276.34 239.74 273.01 250.44 272.35 260.37 274.37 269.18 279 276.66 286.11 282.54 295.49 286.67 306.84 288.92 319.82 289.2 334.05 287.54 349.07"/><polygon class="cls-6" points="289.2 334.05 288.92 319.82 286.85 307.89 285.65 308.24 274.38 314.11 263.35 322.38 252.84 332.77 243.23 344.98 234.78 358.62 227.77 373.3 222.4 388.58 218.82 403.94 217.13 418.97 217.44 433.2 219.5 445.13 220.67 444.77 231.95 438.91 243.01 430.63 253.48 420.25 263.1 408.04 269 398.5 245.74 385.66 244.58 384.58 243.68 383.15 243.06 381.39 242.72 379.41 242.66 377.23 242.92 374.92 243.46 372.56 244.3 370.21 245.38 367.95 246.67 365.86 248.15 363.99 249.76 362.4 251.46 361.12 253.19 360.23 254.89 359.73 256.52 359.61 258.05 359.93 282.46 368.62 283.95 364.46 287.54 349.07 289.2 334.05"/><polygon class="cls-7" points="418.82 421.53 416.42 431.78 412.85 441.95 408.16 451.76 402.53 460.87 396.11 468.98 389.11 475.93 381.75 481.43 374.23 485.37 366.78 487.59 359.67 488.03 332.3 484.17 298.61 479.43 233.79 470.3 245.75 464.07 259.6 453.72 272.73 440.71 284.76 425.41 295.34 408.34 304.14 389.94 310.86 370.83 315.36 351.59 317.44 332.75 317.08 314.94 314.26 298.68 312.8 294.68 385.21 356.51 396.37 366.04 405.48 373.84 406.58 374.79 411.55 379.52 415.49 385.76 418.25 393.35 419.73 402.02 419.93 411.5 418.82 421.53"/><polygon class="cls-6" points="366.78 487.59 374.23 485.37 381.75 481.43 389.11 475.93 390.98 474.07 268.96 444.44 259.6 453.72 245.75 464.07 233.79 470.3 298.61 479.43 332.3 484.17 359.67 488.03 366.78 487.59"/><polygon class="cls-8" points="282.46 368.62 278.55 379.72 271.55 394.39 269 398.5 245.74 385.66 247.08 386.37 248.61 386.68 250.26 386.59 251.96 386.07 253.69 385.16 255.39 383.91 257 382.32 258.46 380.44 259.77 378.33 260.85 376.1 261.66 373.75 262.23 371.38 262.47 369.07 262.44 366.9 262.09 364.91 261.44 363.16 260.55 361.73 259.41 360.64 258.05 359.93 282.46 368.62"/><polygon class="cls-9" points="262.7 371.5 262.13 373.86 261.33 376.21 260.25 378.45 258.93 380.56 257.46 382.43 255.86 384.02 254.16 385.28 252.43 386.19 250.73 386.7 249.07 386.8 247.55 386.49 246.21 385.78 245.05 384.69 244.15 383.25 243.53 381.51 243.19 379.52 243.12 377.34 243.39 375.03 243.93 372.67 244.77 370.32 245.85 368.06 247.13 365.97 248.62 364.11 250.23 362.51 251.93 361.23 253.66 360.35 255.35 359.84 256.99 359.73 258.51 360.04 259.88 360.76 261.01 361.84 261.92 363.27 262.56 365.03 262.9 367.01 262.94 369.19 262.7 371.5"/><polygon class="cls-10" points="262.23 371.38 261.66 373.75 260.85 376.1 259.77 378.33 258.46 380.44 257 382.32 255.39 383.91 253.69 385.16 251.96 386.07 250.26 386.59 248.61 386.68 247.08 386.37 245.74 385.66 244.58 384.58 243.68 383.15 243.06 381.39 242.72 379.41 242.66 377.23 242.92 374.92 243.46 372.56 244.3 370.21 245.38 367.95 246.67 365.86 248.15 363.99 249.76 362.4 251.46 361.12 253.19 360.23 254.89 359.73 256.52 359.61 258.05 359.93 259.41 360.64 260.55 361.73 261.44 363.16 262.09 364.91 262.44 366.9 262.47 369.07 262.23 371.38"/><polygon class="cls-11" points="315.36 351.59 310.86 370.83 304.14 389.94 295.34 408.34 284.76 425.41 272.73 440.71 259.6 453.72 245.75 464.07 233.79 470.3 231.64 471.42 217.69 475.6 204.29 476.41 191.9 473.9 181.54 469.28 193.96 471.79 207.33 470.97 221.32 466.8 235.42 459.43 249.27 449.08 262.4 436.06 274.45 420.77 285.01 403.69 293.81 385.3 300.56 366.19 305.04 346.92 307.14 328.08 306.79 310.27 303.97 294.01 298.79 279.79 291.41 268.02 282.05 259.14 271 253.3 281.34 258.01 292.37 263.83 301.72 272.72 309.11 284.46 312.78 294.64 312.8 294.68 314.26 298.68 317.08 314.94 317.44 332.75 315.36 351.59"/><path class="cls-12" d="M305,346.92l-4.48,19.27-6.75,19.11L285,403.69l-10.56,17.08L262.4,436.06l-13.13,13-13.85,10.35-14.1,7.37-14,4.17-13.37.82-12.42-2.51-11-5.8-9.35-8.92-7.36-11.76-5.18-14.22-2.81-16.27-.37-17.8,2.09-18.85L152,356.42l6.75-19.13,8.77-18.37,10.59-17.1,12.06-15.3,13.14-13,13.81-10.36,14.14-7.37,14-4.17,13.4-.81L271,253.3l11.05,5.84,9.36,8.88,7.38,11.77L304,294l2.82,16.27.36,17.8Zm-11.37,18.19,4.18-17.92,1.93-17.49-.34-16.55L296.82,298,292,284.81l-6.85-10.91-8.69-8.29-10.27-5.4-11.54-2.33-12.41.76-13,3.87-13.12,6.85L203.28,279l-12.2,12.08-11.19,14.2-9.83,15.9-8.18,17.09L155.63,356l-4.17,17.89-2,17.48.34,16.55,2.62,15.12,4.81,13.22,6.84,10.92,8.7,8.28,10.26,5.41,11.54,2.35,12.44-.78,13-3.88,13.12-6.84L246,442.14,258.2,430l11.19-14.2,9.83-15.89,8.19-17.1Z"/><path class="cls-13" d="M297.85,347.19l-4.18,17.92-6.26,17.73-8.19,17.1-9.83,15.89L258.2,430,246,442.14l-12.87,9.61L220,458.59l-13,3.88-12.44.78-11.54-2.35-10.26-5.41-8.7-8.28-6.84-10.92-4.81-13.22L149.84,408l-.34-16.55,2-17.48L155.63,356l6.25-17.77,8.18-17.09,9.83-15.9,11.19-14.2L203.28,279l12.87-9.63,13.12-6.85,13-3.87,12.41-.76,11.54,2.33,10.27,5.4,8.69,8.29L292,284.81l4.8,13.23,2.62,15.11.34,16.55ZM284,364.47l3.59-15.4,1.66-15-.29-14.23-2.24-13-4.13-11.35-5.88-9.39-7.48-7.1-8.81-4.63-9.93-2-10.7.66-11.13,3.33-11.27,5.85-11,8.28-10.5,10.39-9.62,12.2-8.44,13.65-7,14.68-5.38,15.28L161.77,372l-1.69,15,.32,14.23,2.24,13,4.13,11.36,5.88,9.38,7.47,7.12,8.82,4.64,9.89,2,.54-.05,10.16-.62,11.14-3.35L232,438.91,243,430.64l10.47-10.39L263.09,408,269,398.5l2.55-4.11,7-14.67,3.91-11.1Z"/><path class="cls-14" d="M299.78,329.7l-.34-16.55L296.82,298,292,284.81l-6.85-10.91-8.69-8.29-10.27-5.4-11.54-2.33-12.41.76-13,3.87-13.12,6.85L203.28,279l-1.4,1.38c1.58,3.19,3.21,6.43,4.89,9.75l10.57-7.93,11.27-5.85L239.74,273l10.7-.66,9.93,2,8.81,4.63,7.48,7.1,5.88,9.39,4.13,11.35,2.24,13,.29,14.23-1.66,15L284,364.47l-1.49,4.15-3.91,11.1-7,14.67L269,398.5l-.12.19q2.85,4.37,5.76,8.67l4.58-7.42,8.19-17.1,6.26-17.73,4.18-17.92Z"/><polygon class="cls-15" points="493.79 462.92 492.07 470.25 489.53 477.52 486.17 484.51 482.17 490.99 477.58 496.82 472.58 501.75 463.65 509.07 470.57 502.21 476.91 494.16 482.49 485.16 487.09 475.47 490.66 465.42 493 455.28 494.11 445.36 494.58 455.78 493.79 462.92"/><polygon class="cls-16" points="493 455.28 490.66 465.42 487.09 475.47 482.49 485.16 476.91 494.16 470.57 502.21 463.65 509.07 456.36 514.51 448.92 518.41 441.56 520.59 434.52 521.02 427.98 519.7 422.79 517.34 426.15 516.35 434.65 511.88 443 505.66 450.92 497.82 458.18 488.6 464.54 478.28 469.84 467.22 473.91 455.68 476.62 444.09 477.86 432.73 477.64 421.99 475.96 412.2 473.44 405.24 475.1 406 480.91 409.04 485.83 413.74 489.72 419.94 492.44 427.42 493.93 435.97 494.11 445.36 493 455.28"/><polygon class="cls-17" points="476.62 444.09 473.91 455.68 469.84 467.22 464.54 478.28 458.18 488.6 450.92 497.82 443 505.66 434.65 511.88 426.15 516.35 422.79 517.34 422.76 517.33 417.74 518.84 409.66 519.35 402.17 517.82 357.87 497.86 358.2 497.61 364.17 498.83 372.25 498.33 380.66 495.83 389.15 491.39 397.5 485.14 405.42 477.3 412.68 468.09 419.04 457.79 424.35 446.7 428.42 435.17 431.12 423.57 432.37 412.2 432.15 401.47 430.47 391.69 427.36 383.1 422.9 376.02 417.26 370.65 410.6 367.16 456.1 387.68 462.76 391.16 468.39 396.54 472.85 403.61 473.44 405.24 475.96 412.2 477.64 421.99 477.86 432.73 476.62 444.09"/><path class="cls-18" d="M477.86,432.73,477.65,422,476,412.2l-2.52-7-.59-1.63-4.46-7.07-5.63-5.38-6.66-3.48-45.5-20.52,6.66,3.49L422.9,376l4.46,7.08,3.11,8.59,1.68,9.78.22,10.74-1.25,11.36-1.53,6.59c10.16,15.69,22.49,31.38,36.94,44l3.31-6.9,4.07-11.54,2.71-11.59Z"/><polygon class="cls-19" points="431.12 423.57 428.42 435.17 424.35 446.7 419.04 457.79 412.68 468.09 405.42 477.3 397.5 485.14 389.15 491.39 380.66 495.83 372.25 498.33 364.17 498.83 358.2 497.61 366.44 491.07 373.55 490.63 381 488.44 388.51 484.5 395.87 478.99 402.87 472.05 409.3 463.91 414.93 454.8 419.62 445.02 423.19 434.82 425.6 424.57 426.7 414.54 426.5 405.05 425.01 396.41 422.26 388.83 418.35 382.57 413.35 377.83 407.46 374.73 405.48 373.84 396.37 366.04 403.14 365.64 410.6 367.16 417.26 370.65 422.9 376.02 427.36 383.1 430.47 391.69 432.15 401.47 432.37 412.2 431.12 423.57"/><polygon class="cls-20" points="425.6 424.57 423.19 434.82 419.62 445.02 414.93 454.8 409.3 463.91 402.87 472.05 395.87 478.99 388.51 484.5 381 488.44 373.55 490.63 366.44 491.07 359.67 488.03 366.78 487.59 374.23 485.37 381.75 481.43 389.11 475.93 396.11 468.98 402.53 460.87 408.16 451.76 412.85 441.95 416.42 431.78 418.82 421.53 419.93 411.5 419.73 402.02 418.25 393.35 415.49 385.76 411.55 379.52 406.58 374.79 405.48 373.84 407.46 374.73 413.35 377.83 418.35 382.57 422.26 388.83 425.01 396.41 426.5 405.05 426.7 414.54 425.6 424.57"/><text class="cls-21" transform="translate(103 193.27)">重大公告</text></g></g></svg>