<svg xmlns="http://www.w3.org/2000/svg" xmlns:xlink="http://www.w3.org/1999/xlink" viewBox="0 0 24 24"><defs><style>.cls-1{isolation:isolate;}.cls-2,.cls-4{fill:none;}.cls-3{fill:url(#未命名漸層_8);}.cls-4{stroke:#653d82;stroke-miterlimit:10;stroke-width:0.5px;opacity:0.46;mix-blend-mode:multiply;}</style><linearGradient id="未命名漸層_8" x1="2" y1="12" x2="22" y2="12" gradientUnits="userSpaceOnUse"><stop offset="0" stop-color="#8b38ac"/><stop offset="1" stop-color="#653d82"/></linearGradient></defs><g class="cls-1"><g id="圖層_1" data-name="圖層 1"><path class="cls-2" d="M0,0H24V24H0Z"/><path class="cls-3" d="M18,11v2h4V11Zm-2,6.61L19.2,20l1.2-1.6L17.2,16Zm4.4-12L19.2,4,16,6.4,17.2,8ZM4,9a2,2,0,0,0-2,2v2a2,2,0,0,0,2,2H5v4H7V15H8l5,3V6L8,9Zm11.5,3A4.48,4.48,0,0,0,14,8.65v6.69A4.44,4.44,0,0,0,15.5,12Z"/><path class="cls-4" d="M18,11v2h4V11Zm-2,6.61L19.2,20l1.2-1.6L17.2,16Zm4.4-12L19.2,4,16,6.4,17.2,8ZM4,9a2,2,0,0,0-2,2v2a2,2,0,0,0,2,2H5v4H7V15H8l5,3V6L8,9Zm11.5,3A4.48,4.48,0,0,0,14,8.65v6.69A4.44,4.44,0,0,0,15.5,12Z"/></g></g></svg>