<?xml version="1.0" encoding="utf-8"?>
<!-- Generator: Adobe Illustrator 25.0.1, SVG Export Plug-In . SVG Version: 6.00 Build 0)  -->
<svg version="1.1" id="圖層_1" xmlns="http://www.w3.org/2000/svg" xmlns:xlink="http://www.w3.org/1999/xlink" x="0px" y="0px"
	 viewBox="0 0 24 24" style="enable-background:new 0 0 24 24;" xml:space="preserve">
<style type="text/css">
	.st0{fill:url(#SVGID_1_);}
	.st1{opacity:0.46;fill:none;stroke:#FFFFFF;stroke-width:0.5;stroke-miterlimit:10;enable-background:new    ;}
</style>
<g>
	<linearGradient id="SVGID_1_" gradientUnits="userSpaceOnUse" x1="2" y1="12" x2="22" y2="12">
		<stop  offset="0" style="stop-color:#887CE6"/>
		<stop  offset="1" style="stop-color:#BC88D1"/>
	</linearGradient>
	<path class="st0" d="M7,13.5c-2.2,0-4,1.8-4,4s1.8,4,4,4s4-1.8,4-4S9.2,13.5,7,13.5z M7,19.5c-1.1,0-2-0.9-2-2s0.9-2,2-2s2,0.9,2,2
		S8.1,19.5,7,19.5z M13,13.5v8h8v-8H13z M19,19.5h-4v-4h4V19.5z M7,2.5l-5,9h10L7,2.5z M7,6.6l1.6,2.9H5.4L7,6.6z M19.2,3
		c-1.1,0-1.8,0.6-2.2,1.2C16.6,3.6,15.8,3,14.8,3C13.2,3,12,4.3,12,5.8c0,2,2.4,3.4,5,5.8c2.6-2.3,5-3.8,5-5.8C22,4.3,20.8,3,19.2,3
		z M17,8.9c-1.4-1.2-3-2.4-3-3.1C14,5.3,14.4,5,14.8,5c0.3,0,0.5,0.2,0.7,0.4L17,6.8l1.5-1.4C18.7,5.2,18.9,5,19.2,5
		C19.6,5,20,5.3,20,5.8C20,6.4,18.5,7.6,17,8.9z"/>
	<path class="st1" d="M7,13.5c-2.2,0-4,1.8-4,4s1.8,4,4,4s4-1.8,4-4S9.2,13.5,7,13.5z M7,19.5c-1.1,0-2-0.9-2-2s0.9-2,2-2s2,0.9,2,2
		S8.1,19.5,7,19.5z M13,13.5v8h8v-8H13z M19,19.5h-4v-4h4V19.5z M7,2.5l-5,9h10L7,2.5z M7,6.6l1.6,2.9H5.4L7,6.6z M19.2,3
		c-1.1,0-1.8,0.6-2.2,1.2C16.6,3.6,15.8,3,14.8,3C13.2,3,12,4.3,12,5.8c0,2,2.4,3.4,5,5.8c2.6-2.3,5-3.8,5-5.8C22,4.3,20.8,3,19.2,3
		z M17,8.9c-1.4-1.2-3-2.4-3-3.1C14,5.3,14.4,5,14.8,5c0.3,0,0.5,0.2,0.7,0.4L17,6.8l1.5-1.4C18.7,5.2,18.9,5,19.2,5
		C19.6,5,20,5.3,20,5.8C20,6.4,18.5,7.6,17,8.9z"/>
</g>
</svg>
