<?xml version="1.0" encoding="utf-8"?>
<!-- Generator: Adobe Illustrator 25.0.1, SVG Export Plug-In . SVG Version: 6.00 Build 0)  -->
<svg version="1.1" id="圖層_1" xmlns="http://www.w3.org/2000/svg" xmlns:xlink="http://www.w3.org/1999/xlink" x="0px" y="0px"
	 viewBox="0 0 24 24" style="enable-background:new 0 0 24 24;" xml:space="preserve">
<style type="text/css">
	.st0{fill:none;}
	.st1{fill:url(#SVGID_1_);}
	.st2{opacity:0.46;fill:none;stroke:#FFFFFF;stroke-width:0.5;stroke-miterlimit:10;enable-background:new    ;}
</style>
<g>
	<g id="圖層_1_1_">
		<path class="st0" d="M0,0h24v24H0V0z"/>
		
			<linearGradient id="SVGID_1_" gradientUnits="userSpaceOnUse" x1="2" y1="14" x2="22" y2="14" gradientTransform="matrix(1 0 0 -1 0 26)">
			<stop  offset="0" style="stop-color:#887CE6"/>
			<stop  offset="1" style="stop-color:#BC88D1"/>
		</linearGradient>
		<path class="st1" d="M20,12c0-1.1,0.9-2,2-2V6c0-1.1-0.9-2-2-2H4C2.9,4,2,4.9,2,6v4c1.1,0,2,0.9,2,2s-0.9,2-2,2v4c0,1.1,0.9,2,2,2
			h16c1.1,0,2-0.9,2-2v-4C20.9,14,20,13.1,20,12z M15.6,16.8L12,14.5l-3.6,2.3l1.1-4.1L6.2,10l4.2-0.2L12,5.8l1.5,4l4.2,0.2
			l-3.3,2.7L15.6,16.8z"/>
		<path class="st2" d="M20,12c0-1.1,0.9-2,2-2V6c0-1.1-0.9-2-2-2H4C2.9,4,2,4.9,2,6v4c1.1,0,2,0.9,2,2s-0.9,2-2,2v4c0,1.1,0.9,2,2,2
			h16c1.1,0,2-0.9,2-2v-4C20.9,14,20,13.1,20,12z M15.6,16.8L12,14.5l-3.6,2.3l1.1-4.1L6.2,10l4.2-0.2L12,5.8l1.5,4l4.2,0.2
			l-3.3,2.7L15.6,16.8z"/>
	</g>
</g>
</svg>
