<svg xmlns="http://www.w3.org/2000/svg" xmlns:xlink="http://www.w3.org/1999/xlink" viewBox="0 0 24 24"><defs><style>.cls-1{isolation:isolate;}.cls-2,.cls-4{fill:none;}.cls-3{fill:url(#未命名漸層_8);}.cls-4{stroke:#653d82;stroke-miterlimit:10;stroke-width:0.5px;opacity:0.46;mix-blend-mode:multiply;}</style><linearGradient id="未命名漸層_8" x1="2" y1="12" x2="22" y2="12" gradientUnits="userSpaceOnUse"><stop offset="0" stop-color="#8b38ac"/><stop offset="1" stop-color="#653d82"/></linearGradient></defs><g class="cls-1"><g id="圖層_1" data-name="圖層 1"><path class="cls-2" d="M0,0H24V24H0Z"/><path class="cls-3" d="M20,12a2,2,0,0,1,2-2V6a2,2,0,0,0-2-2H4A2,2,0,0,0,2,6v4a2,2,0,0,1,0,4v4a2,2,0,0,0,2,2H20a2,2,0,0,0,2-2V14A2,2,0,0,1,20,12Zm-4.42,4.8L12,14.5,8.42,16.8,9.5,12.68,6.21,10l4.24-.25L12,5.8l1.54,4,4.24.25-3.29,2.69Z"/><path class="cls-4" d="M20,12a2,2,0,0,1,2-2V6a2,2,0,0,0-2-2H4A2,2,0,0,0,2,6v4a2,2,0,0,1,0,4v4a2,2,0,0,0,2,2H20a2,2,0,0,0,2-2V14A2,2,0,0,1,20,12Zm-4.42,4.8L12,14.5,8.42,16.8,9.5,12.68,6.21,10l4.24-.25L12,5.8l1.54,4,4.24.25-3.29,2.69Z"/></g></g></svg>