<svg xmlns="http://www.w3.org/2000/svg" xmlns:xlink="http://www.w3.org/1999/xlink" viewBox="0 0 24 24"><defs><style>.cls-1{isolation:isolate;}.cls-2,.cls-4{fill:none;}.cls-3{fill:url(#未命名漸層_8);}.cls-4{stroke:#653d82;stroke-miterlimit:10;stroke-width:0.5px;opacity:0.46;mix-blend-mode:multiply;}</style><linearGradient id="未命名漸層_8" x1="5" y1="12" x2="19" y2="12" gradientUnits="userSpaceOnUse"><stop offset="0" stop-color="#8b38ac"/><stop offset="1" stop-color="#653d82"/></linearGradient></defs><g class="cls-1"><g id="圖層_1" data-name="圖層 1"><path class="cls-2" d="M0,0H24V24H0Z"/><path class="cls-3" d="M19,16.94V8.5C19,5.71,16.39,5.1,13,5l.76-1.51H17V2H7V3.5h4.75L11,5c-3.13.09-6,.71-6,3.48v8.44a3.21,3.21,0,0,0,2.59,3L6,21.5V22H8.23l2-2H14l2,2h2v-.5L16.5,20h-.08C18.11,20,19,18.63,19,16.94ZM12,18.5A1.5,1.5,0,1,1,13.5,17,1.5,1.5,0,0,1,12,18.5ZM17,14H7V9H17Z"/><path class="cls-4" d="M19,16.94V8.5C19,5.71,16.39,5.1,13,5l.76-1.51H17V2H7V3.5h4.75L11,5c-3.13.09-6,.71-6,3.48v8.44a3.21,3.21,0,0,0,2.59,3L6,21.5V22H8.23l2-2H14l2,2h2v-.5L16.5,20h-.08C18.11,20,19,18.63,19,16.94ZM12,18.5A1.5,1.5,0,1,1,13.5,17,1.5,1.5,0,0,1,12,18.5ZM17,14H7V9H17Z"/></g></g></svg>